# xmcd CD database file
#
# Track frame offsets:
#	150
#	16037
#	35837
#	48325
#	68112
#	87817
#	102937
#	115670
#	132940
#	152980
#	174410
#	196590
#	215895
#	234722
#	254292
#	266082
#	283282
#	297145
#	311810
#	334165
#
# Disc length: 4716 seconds
#
# Revision: 0
# Processed by: cddbd v1.5.1PL2 Copyright (c) Steve Scherf et al.
# Submitted via: CDex 1.51
#
DISCID=2a126a14
DTITLE=Various Artist - Jazz Ever! Ballads disc2
DYEAR=2005
DGENRE=Jazz
TTITLE0=I Waited for You/MILES DAVIS
TTITLE1=I Guess I'll Hang my Tears Out to Dry/CANNONBALL ADDERLEY
TTITLE2=You've Changed/JULIE LONDON
TTITLE3=I'm a Fool to Want You/DEXTER GORDON
TTITLE4=Like Someone in Love/ART FARMER
TTITLE5=I Fall in Love Too Easily/CHET BAKER
TTITLE6=Yesterdays/STAN GETZ
TTITLE7=What's New/JIMMY SMITH
TTITLE8=I Should Care/HANK MOBLEY
TTITLE9=My Foolish Heart/RON CARTER
TTITLE10=Autumn Nocturne/LOU DONALDSON
TTITLE11=For All We Know/PHINEAS NEWBORN JR.
TTITLE12=More Than You Know/STANLEY TURRENTINE
TTITLE13=I've Got a Crush on You/THAD JONES
TTITLE14=A Cottage for Sale/CHRIS CONNOR
TTITLE15=Memories of You/SONNY CRISS
TTITLE16=Prelude to a Kiss/DUKE ELLINGTON
TTITLE17=Early Autumn/WOODY HERMAN
TTITLE18=Bewitched/JUNE CHRISTY
TTITLE19=Nancy(With The Laughing Face)/IKE QUEBEC
EXTD=YEAR: 2005
EXTT0=
EXTT1=
EXTT2=
EXTT3=
EXTT4=
EXTT5=
EXTT6=
EXTT7=
EXTT8=
EXTT9=
EXTT10=
EXTT11=
EXTT12=
EXTT13=
EXTT14=
EXTT15=
EXTT16=
EXTT17=
EXTT18=
EXTT19=
PLAYORDER=
